<?xml version="1.0" encoding="UTF-8"?>
<!DOCTYPE svg PUBLIC "-//W3C//DTD SVG 1.1//EN" "http://www.w3.org/Graphics/SVG/1.1/DTD/svg11.dtd">
<svg version="1.1" xmlns="http://www.w3.org/2000/svg" xmlns:xlink="http://www.w3.org/1999/xlink" x="0" y="0" width="1024" height="1024" viewBox="0, 0, 1024, 1024">
  <g id="layer101">
    <path d="M474,987.8 C411.8,982.4 341.2,961.6 289,933 C148.6,856.6 55.6,717 39.8,559 C36.6,526.6 38.4,468 43.8,437 C57,359.6 86.2,291.4 133.2,228 C153,201.2 200.8,153.4 228,133.2 C327,59.6 447.8,26.8 568.4,41 C674.2,53.4 773.4,101.4 849,177 C969.6,297.2 1016.2,468.2 973.8,633.4 C966.4,662.2 956.6,688.8 942.2,719 C873.4,862.8 735.8,962.8 577,985 C550.4,988.8 500,990.2 474,987.8 z" fill="#010101"/>
  </g>
  <g id="layer102">
    <path d="M485,940.6 C425.6,935.6 377,922.4 327,898 C202,837 116.6,723.4 91.4,585 C85,549.8 85,478 91.6,442.2 C99.8,396.2 113.6,355.4 134,316.6 C156.6,273.6 180.2,242 216.2,206.8 C284,140.8 367,101 462,89 C494.2,84.8 551.6,85.8 582,91 C650.6,102.4 715,130.2 771,172 C847.4,229.4 904.8,315.6 928,408 C960.8,538.8 931.4,675.6 848,780 C832.4,799.6 799,833 780,848.2 C699,913 584.2,949 485,940.6 z M303,776.6 C314.8,772.6 326,765.2 334.4,756.6 C338.4,752.4 379.6,689.2 425.8,616 C472.2,542.8 510.8,482.8 511.6,482.6 C512.4,482.2 551.2,541.2 598,613.6 C644.6,685.8 687.4,749.8 692.8,755.6 C707.4,771.2 724.2,778.8 745.8,779.8 C783.8,781.4 816.2,762.6 831.8,730 C836.2,720.6 837,716.4 837,700 C837,683.8 836.2,679.4 831.8,670 C823,651.4 580.4,277.8 570.4,267.4 C559.2,255.8 541.6,246.8 524.4,243.6 C499.6,239 469.8,248.8 451.8,267.4 C440.4,279.2 201.4,655.6 194.4,672.6 C186,693.2 188.8,720.6 201,739.8 C212.8,758.6 239.2,776 262,779.8 C274.8,782 291.6,780.6 303,776.6 z" fill="#FE4A01"/>
    <path d="M262.4,731.4 C245.6,725 234.6,710 236.6,695.8 C238,685.6 479.8,304 489.6,296.4 C504.2,285.2 529.2,289.2 540.6,304.4 C557,326.4 789,688.2 790.6,694.2 C797.4,721.8 752.8,745.8 730,726.8 C726.8,724 677.2,649.2 619.8,560.4 C562.4,471.6 514.4,397.8 513.2,396.4 C511.4,394.6 487.2,431.4 407,558.2 C338.2,666.6 300.8,724.2 296.4,727.6 C288.6,733.6 272.8,735.4 262.4,731.4 z" fill="#FE4A01"/>
  </g>
  <g id="layer103">
    <path d="M485,940.6 C425.6,935.6 377,922.4 327,898 C202,837 116.6,723.4 91.4,585 C85,549.8 85,478 91.6,442.2 C99.8,396.2 113.6,355.4 134,316.6 C156.6,273.6 180.2,242 216.2,206.8 C284,140.8 367,101 462,89 C494.2,84.8 551.6,85.8 582,91 C650.6,102.4 715,130.2 771,172 C847.4,229.4 904.8,315.6 928,408 C960.8,538.8 931.4,675.6 848,780 C832.4,799.6 799,833 780,848.2 C699,913 584.2,949 485,940.6 z M303,776.6 C314.8,772.6 326,765.2 334.4,756.6 C338.4,752.4 379.6,689.2 425.8,616 C472.2,542.8 510.8,482.8 511.6,482.6 C512.4,482.2 551.2,541.2 598,613.6 C644.6,685.8 687.4,749.8 692.8,755.6 C707.4,771.2 724.2,778.8 745.8,779.8 C783.8,781.4 816.2,762.6 831.8,730 C836.2,720.6 837,716.4 837,700 C837,683.8 836.2,679.4 831.8,670 C823,651.4 580.4,277.8 570.4,267.4 C559.2,255.8 541.6,246.8 524.4,243.6 C499.6,239 469.8,248.8 451.8,267.4 C440.4,279.2 201.4,655.6 194.4,672.6 C186,693.2 188.8,720.6 201,739.8 C212.8,758.6 239.2,776 262,779.8 C274.8,782 291.6,780.6 303,776.6 z M507.4,741.2 C508.6,740 473.4,686.8 467.8,681.6 C456.2,670.6 437.2,677.8 434.8,694 C434,700 435.4,703.6 446.8,721 C458.2,738.6 460.6,741.2 466.4,742 C473.2,743 506.2,742.4 507.4,741.2 z M567.2,738.6 C568.8,736.6 575,726.8 581.2,716.6 C590.4,701.4 592.2,697.2 591,692.6 C588,680 574,673 562,678 C556.2,680.4 553.4,684.2 526,728 L516.6,743 L540.6,742.6 C560.8,742.2 565,741.6 567.2,738.6 z" fill="#FE9E01"/>
    <path d="M262.4,731.4 C245.6,725 234.6,710 236.6,695.8 C238,685.6 479.8,304 489.6,296.4 C504.2,285.2 529.2,289.2 540.6,304.4 C557,326.4 789,688.2 790.6,694.2 C797.4,721.8 752.8,745.8 730,726.8 C726.8,724 677.2,649.2 619.8,560.4 C562.4,471.6 514.4,397.8 513.2,396.4 C511.4,394.6 487.2,431.4 407,558.2 C338.2,666.6 300.8,724.2 296.4,727.6 C288.6,733.6 272.8,735.4 262.4,731.4 z" fill="#FE9E01"/>
  </g>
  <g id="layer104">
    <path d="M485,940.6 C425.6,935.6 377,922.4 327,898 C202,837 116.6,723.4 91.4,585 C85,549.8 85,478 91.6,442.2 C99.8,396.2 113.6,355.4 134,316.6 C156.6,273.6 180.2,242 216.2,206.8 C284,140.8 367,101 462,89 C494.2,84.8 551.6,85.8 582,91 C650.6,102.4 715,130.2 771,172 C847.4,229.4 904.8,315.6 928,408 C960.8,538.8 931.4,675.6 848,780 C832.4,799.6 799,833 780,848.2 C699,913 584.2,949 485,940.6 z M303,776.6 C314.8,772.6 326,765.2 334.4,756.6 C338.4,752.4 379.6,689.2 425.8,616 C472.2,542.8 510.8,482.8 511.6,482.6 C512.4,482.2 551.2,541.2 598,613.6 C644.6,685.8 687.4,749.8 692.8,755.6 C707.4,771.2 724.2,778.8 745.8,779.8 C783.8,781.4 816.2,762.6 831.8,730 C836.2,720.6 837,716.4 837,700 C837,683.8 836.2,679.4 831.8,670 C823,651.4 580.4,277.8 570.4,267.4 C559.2,255.8 541.6,246.8 524.4,243.6 C499.6,239 469.8,248.8 451.8,267.4 C440.4,279.2 201.4,655.6 194.4,672.6 C186,693.2 188.8,720.6 201,739.8 C212.8,758.6 239.2,776 262,779.8 C274.8,782 291.6,780.6 303,776.6 z M547.2,770.6 C586.4,709.4 592.2,698.8 591.2,693.2 C589.6,685 582.8,678.4 574.6,676.8 C561.8,674.4 557.6,678.2 537.8,709.8 C527.6,725.8 518,740.6 516.2,742.6 C513.4,746 513.2,746 510,742.6 C508.2,740.6 498.6,726.6 489,711.4 C479.2,696.2 469,682 466.4,679.8 C454.4,670.4 435.4,679.8 435.2,695.2 C435,701.8 438.4,708.4 458,738.4 L481,774 L513,774 C541.4,774 545.2,773.6 547.2,770.6 z" fill="#FED201"/>
    <path d="M262.4,731.4 C245.6,725 234.6,710 236.6,695.8 C238,685.6 479.8,304 489.6,296.4 C504.2,285.2 529.2,289.2 540.6,304.4 C557,326.4 789,688.2 790.6,694.2 C797.4,721.8 752.8,745.8 730,726.8 C726.8,724 677.2,649.2 619.8,560.4 C562.4,471.6 514.4,397.8 513.2,396.4 C511.4,394.6 487.2,431.4 407,558.2 C338.2,666.6 300.8,724.2 296.4,727.6 C288.6,733.6 272.8,735.4 262.4,731.4 z" fill="#FED201"/>
  </g>
  <g id="layer105">
    <path d="M485,940.6 C425.6,935.6 377,922.4 327,898 C202,837 116.6,723.4 91.4,585 C85,549.8 85,478 91.6,442.2 C99.8,396.2 113.6,355.4 134,316.6 C156.6,273.6 180.2,242 216.2,206.8 C284,140.8 367,101 462,89 C494.2,84.8 551.6,85.8 582,91 C650.6,102.4 715,130.2 771,172 C847.4,229.4 904.8,315.6 928,408 C960.8,538.8 931.4,675.6 848,780 C832.4,799.6 799,833 780,848.2 C699,913 584.2,949 485,940.6 z M526.8,799.6 C532.2,794.2 581.2,719 589.8,702.4 C595,692.8 586.8,679 574.6,676.8 C561.8,674.4 557.6,678.2 537.8,709.8 C527.6,725.8 518,740.6 516.2,742.6 C513.4,746 513.2,746 510,742.6 C508.2,740.6 498.6,726.6 489,711.4 C479.2,696.2 469,682 466.4,679.8 C455.2,671 437,679.2 434.8,694 C433.8,700.4 436.6,705.2 464,748 C480.6,773.8 497,797.4 500.2,800.6 C508.6,808.4 518,808 526.8,799.6 z M303,776.6 C314.8,772.6 326,765.2 334.4,756.6 C338.4,752.4 379.6,689.2 425.8,616 C472.2,542.8 510.8,482.8 511.6,482.6 C512.4,482.2 551.2,541.2 598,613.6 C644.6,685.8 687.4,749.8 692.8,755.6 C707.4,771.2 724.2,778.8 745.8,779.8 C783.8,781.4 816.2,762.6 831.8,730 C836.2,720.6 837,716.4 837,700 C837,683.8 836.2,679.4 831.8,670 C823,651.4 580.4,277.8 570.4,267.4 C559.2,255.8 541.6,246.8 524.4,243.6 C499.6,239 469.8,248.8 451.8,267.4 C440.4,279.2 201.4,655.6 194.4,672.6 C186,693.2 188.8,720.6 201,739.8 C212.8,758.6 239.2,776 262,779.8 C274.8,782 291.6,780.6 303,776.6 z" fill="#FFFFFF"/>
    <path d="M262.4,731.4 C245.6,725 234.6,710 236.6,695.8 C238,685.6 479.8,304 489.6,296.4 C504.2,285.2 529.2,289.2 540.6,304.4 C557,326.4 789,688.2 790.6,694.2 C797.4,721.8 752.8,745.8 730,726.8 C726.8,724 677.2,649.2 619.8,560.4 C562.4,471.6 514.4,397.8 513.2,396.4 C511.4,394.6 487.2,431.4 407,558.2 C338.2,666.6 300.8,724.2 296.4,727.6 C288.6,733.6 272.8,735.4 262.4,731.4 z" fill="#FFFFFF"/>
  </g>
</svg>
